<?xml version="1.0" encoding="utf-8"?>
<!-- Generator: Adobe Illustrator 26.4.1, SVG Export Plug-In . SVG Version: 6.00 Build 0)  -->
<svg version="1.1" id="uuid-ba7654bd-9c6b-48d3-acb7-a2375ad5dc82"
	 xmlns="http://www.w3.org/2000/svg" xmlns:xlink="http://www.w3.org/1999/xlink" x="0px" y="0px" viewBox="0 0 53.9 66.9"
	 style="enable-background:new 0 0 53.9 66.9;" xml:space="preserve">
<style type="text/css">
	.st0{fill:#747857;stroke:#000000;stroke-width:0.25;stroke-miterlimit:10;}
</style>
<g id="uuid-ffbe613b-87f0-410f-a8ab-d2ef5fa66973">
	<g id="uuid-436bc8e4-66cb-408d-b32f-2685fda6b909">
		<path class="st0" d="M6.1,14.9c0,0,0.1,0,0.1,0c0.2,0.1,0.4,0.2,0.6,0.2c0.2,0.1,0.5,0.4,0.7,0.3c0.3,0,0.2-0.4,0-0.5
			c-0.1-0.1-0.3-0.2-0.5-0.2c-0.8-0.2-1.6-0.4-2.4-0.6c-0.1,0-0.1,0-0.2,0c-0.2,0-0.2,0.2-0.1,0.4s0.2,0.2,0.4,0.3
			c0.2,0.1,0.4,0.1,0.7,0.1C5.7,14.9,5.9,14.9,6.1,14.9L6.1,14.9z"/>
		<path class="st0" d="M7.7,19.5c-0.3-0.2-0.7-0.5-1-0.8c-0.2-0.2-0.2-0.5-0.3-0.8c-0.1-0.2-0.4-0.9,0-0.7c0.3,0.1,0.6,0.4,0.9,0.5
			c0.3,0.1,0.6,0.1,0.8,0.3c0.2,0.2,0.3,0.4,0.4,0.6c0.1,0.3,0.3,0.6,0.3,1c0,0.2-0.1,0.9-0.4,0.6c-0.1-0.1-0.2-0.3-0.2-0.5
			C8,19.7,7.8,19.6,7.7,19.5L7.7,19.5z"/>
		<path id="uuid-cae5a395-42a7-4228-891f-061904f9b000" class="st0" d="M53.6,18.2c-0.6-1-0.2-2.3-1.1-3.2c-1.1-0.7-2.1-1.5-2.9-2.5
			c-2-0.5-4.1,0-6-0.4c-0.6,0.9-1.8,1-2.7,0.6c-0.8-0.2-1.5,1.2-2.2,0.5c-0.4-0.8-1.4,0.2-2-0.1c-0.6-0.6-0.4-1.6-0.9-2.3
			c-0.7-0.3-1.4-0.4-1.8-1.1c-1.4-2.1-2.3-4.9-4.4-6.6c-0.6-0.2,0,0.4-0.3,0.6c-1,0.2-3.6,0.8-3.3-1c-0.1-1-1.4-0.4-1.7-1.2
			c-0.6-0.6-1.3-1.3-2-1.3c-0.7,0.1-0.7,1.2-1.4,1.4c-1.2-0.4-2.3-0.6-3.7-0.1c-0.8-0.2-1.4-0.2-1.6,0.8c-1.1,1-2.9,0.6-4.1,0.1
			c-0.8,0.1,1.6,2.2,1.8,2.6c0.4,0.3,0.5,0.5,0.6,1.1c0.3,1.3,1.5,2.2,1.6,3.5c-0.2,1.6-0.4,1.8,0.6,2.9c-0.5,1-2.5,0.7-3.5,0.5
			c-0.6,0.1-0.9,0.4-1.1,0.2c-0.1-1.4-0.8-0.1-1.9-0.1c0.2,0.8-0.3,1.3-0.9,1.6c-1.1,0.9,1.7,1.6,1.5,2.9c-0.1,0.5-0.5,0.3-0.7,0.1
			c-0.2,0.4,0.3,0.8,0.3,1.2c0.1,0.8-1.1,1-0.9,1.7c0.5,0.6,1.3,0.9,1.7,1.6c-0.6,0.1-1.2-1.3-2.1-1.1c-2.5,1.4,3,2.9,3.6,4.1
			c2.8,1.8,1,6.5,4.1,7.7c0.5,0.3,0.2,0.4-0.2,0.1c-0.4,0,0.1,1,0,1.3c0,0.7-0.3-0.1-0.3-0.4c-0.1-0.6-0.5-1-1-1.4
			c-1.3-1.3-0.7-3.5-2.1-4.8c-1-1-2.4-1.5-2.9-3c-0.6-0.9-0.8,0.8-0.9,1.3c-0.4,3-0.9,6-1.3,8.9c-0.1,0.5-0.1,1.1-0.2,1.7
			c0,0.3-0.1,0.6-0.1,0.8c0,0.2-0.1,0.6,0,0.8c0.2-0.1,0.2-0.3,0.2-0.5C8,37.4,8.1,37.2,8.1,37c0.1-0.2,0.2-0.5,0.5-0.5
			c0.1,0,0.2,0,0.4,0.1c0.5,0.2,0.9,0.7,0.9,1.2c0,0.1,0,0.2,0,0.3c-0.1,0.1-0.3,0.1-0.4,0.1S9.2,38,9.1,38c-0.3-0.1-0.6,0-0.8,0.2
			c-0.6,0.4-0.7,1.1-0.8,1.8c-0.7,4.4-1.3,14.8-5.2,17c-0.4,0.2-0.8,0.7-1.2,0.7c-1-0.1-1.3,0.5-0.4,1.1c0.1,0.3,0.4,0.2,0.6,0.1
			c0.8-0.4,0.8,0.5,1.2,0.8c0.5,0.2,0.7-0.5,1.1-0.6c0.5,0,1,0.2,1.5,0.3c1.7,0.9-1.9,3,0.1,3.5c1,0,0.7-1.7,1.8-1.5
			c0.2,0.1-0.2,0.3-0.2,0.3c-0.5,1,1.7,0.8,2.3,1.4c1.3,0.6,2.6,1.4,4.1,1c0.9,0.4,2.4,3.3,3.2,2.4c1.4,0.3,2.9-0.1,3-1.8
			c0.1-0.2,0.4-0.5,0.3-0.8c-0.1-0.2-0.2-0.4,0-0.6c0.3-0.3,1.2-0.3,1.2-0.8c0.1-1.1,1.3-1.7,1.9-2.5c0.5-0.9-0.5-1.3,0.8-2
			c0.2-0.7-0.4-1.2-0.8-1.6c1-1.5-2-1.9-2.6-2.9c0.1-0.7,1-1.2,0.6-2c0-0.2,0.1-0.4,0.2-0.6c0.2-0.4-0.3-0.7-0.3-1.1
			c0.1-0.6,0.9-0.3,1.3-0.5c0.3-0.1,0.4-0.5,0.6-0.7c0.8-0.9,0.9,2.1,1.5,0.5c0-0.2,0.1-0.5,0.4-0.5c0.7,0.5,1.1-0.7,1.8-0.4
			c1.6,0.3,3-1.4,4.7-0.2c1,0.3,1.4-1.6,2.3-1.3c0.5-0.1,0.2-0.4,0.2-0.7c0.2-0.2,0.3-0.2,0.5-0.4c0.6-0.7-0.8-1.6-0.2-2.3
			c0.6,0.3,1.3,0.3,1.8-0.2c0.1-0.7-0.7-1.2-0.8-1.9c0.1-1.1,1.4-1.9,2.2-2.5c0.6-0.2,1.6-0.5,1.4-1.3c0-1,1.7-1.2,1.5-2.2
			c-1.2-1.8,1.8-2,2.8-1.2c1.7,1.7,1.6,0.6,3.4,0.4c0.7-0.1,2.8,0,2-1.1c-0.1-0.1,0-0.2,0.1-0.2c1.9-1.5,0.2-2,1.2-2.9
			c0.6-0.5,1.4-1,1.6-1.8c-0.3-0.9,0.3-1,1-0.6c1,0,0.9-1.5,0.5-2.1c-0.3-0.4-0.5-0.9-0.2-1.3c1.3-1-0.3-2.1-0.9-2.9
			c-0.3-0.6,0.6-0.8,1-1C53.3,20.2,54.2,19.1,53.6,18.2L53.6,18.2z"/>
	</g>
</g>
</svg>
