<?xml version="1.0" encoding="utf-8"?>
<!-- Generator: Adobe Illustrator 26.4.1, SVG Export Plug-In . SVG Version: 6.00 Build 0)  -->
<svg version="1.1" id="uuid-bed1af2a-d903-4b92-afd3-4e4a8f5a3d51"
	 xmlns="http://www.w3.org/2000/svg" xmlns:xlink="http://www.w3.org/1999/xlink" x="0px" y="0px" viewBox="0 0 64.4 40.2"
	 style="enable-background:new 0 0 64.4 40.2;" xml:space="preserve">
<style type="text/css">
	.st0{fill:#99BD9B;stroke:#000000;stroke-width:0.25;stroke-miterlimit:10;}
</style>
<g id="uuid-cdc960de-a339-4ada-b15f-e7235fff92a2">
	<g id="uuid-42a36cae-167b-41cc-a5f8-695099e4782f">
		<path class="st0" d="M23.4,8.7c-0.2-0.1-0.4-0.2-0.5-0.4c0-0.1,0-0.2,0-0.3c0,0,0-0.1,0-0.1c0-0.1,0-0.1-0.1-0.1c0,0-0.1,0-0.2,0
			c-0.1,0-0.2,0-0.3,0c0,0-0.1,0-0.1-0.1c0,0,0,0,0-0.1c0.2-0.2,0.6-0.2,0.8-0.3c0.3-0.2,0.5-0.4,0.7-0.6c0.4-0.5,0.5-1.3,0.2-1.9
			c-0.6-0.9-2.4-0.5-2.8-1.5c-0.2-0.4-0.2-0.8-0.8-1.2c-0.5-0.3-0.9-1.8-1.2-1.6c-0.5,0.2-1.1,1.3-1.6,1.5c-0.3,0.1-0.2-0.5-0.7-0.7
			s-0.8,0-1.3,0.2c-0.4,0.2-1.1,0.2-1.4,0.1c-0.4-0.1-0.7-0.4-1.1-0.5c-0.4,0-0.6,0-0.9-0.3c-0.4-0.5-1-0.7-1.6-0.5
			C9.8,0.4,9.3,1,8.7,1.2c-0.3,0.1-0.6-0.1-1-0.1c-0.4,0-0.9,0.3-1.2,0.6C6.2,1.9,6,2.3,6,2.7C6,3,6.2,3.2,6.4,3.5
			C6.6,3.8,5.2,4,5,4.1C4.5,4.2,4,4.4,3.5,4.5c-0.3,0.1-0.7,0.2-1,0.4C2.2,5.2,2,5.5,2,5.9C2,5.9,2,6,2,6C2,6,2.1,6,2.1,6
			C3,7,4,7.8,5.1,8.5c0.9,0.9,0.5,2.2,1.1,3.2c0.6,0.9-0.3,2-1,2.5c-0.4,0.1-1.3,0.4-1,1c0.5,0.9,2.2,2,0.9,2.9
			C4.7,18.6,5,19,5.3,19.4c0.4,0.6,0.4,2.2-0.6,2.1c-0.7-0.4-1.2-0.3-1,0.6c-0.2,0.7-1,1.3-1.6,1.8c-1,0.9,0.7,1.4-1.2,2.9
			c-0.1,0-0.2,0.1-0.1,0.2c0.4,0.6-0.1,0.9-0.7,1c0.1,0.2,0.1,0.4,0.2,0.6c0.1,0.3,0.1,0.6,0.1,0.8c0.1,0.2,0.2,0.4,0.3,0.6
			c0.1,0.2,0.2,0.4,0.3,0.6c0.2,0.5,0.1,2.7,1,2.3c0.3-0.1,0.7-0.3,1-0.3c0.5-0.1,0.9,0,1.4,0c0.3,0,0.6-0.1,0.9-0.2
			c0.3-0.2,0.6-0.4,0.7-0.6c0.3-0.8,0.7-1.5,1.3-2c0.2-0.2,0.5-0.3,0.7-0.6c0.1-0.1,0.2-0.4,0.4-0.4c0.2,0,0.4,0.1,0.5,0.3
			c0.1,0.1,0.1,0.3,0.3,0.4c0.1,0.1,0.3,0.1,0.4,0.2c0.2,0.1,0.4,0.3,0.6,0.5c0.2,0.2,0.4,0.4,0.5,0.6c0.3,0.6,0.2,1.3,0.6,1.8
			c0.1,0.1,0.2,0.2,0.4,0.3c0.2,0.1,0.4,0,0.5-0.2c0.1-0.2,0.1-0.4,0.2-0.6c0.2-0.8,0.1-0.7,0.2-1.3c0.1-0.3,0.6-1,0.9-1.2
			c0.2-0.1,0.4-0.1,0.6-0.1c0.4-0.1,0.8-0.3,1.2-0.5c0.4-0.3,0.9-0.6,1.4-0.5c0.3,0.1,0.5,0.4,0.7,0.6s0.3,0.6,0.5,0.8
			c0.2,0.2,0.6,0.4,0.9,0.3c0.4-0.1,0.6-0.6,1-0.7c0.3-0.1,0.6,0.1,0.9,0.2c0.5,0.3,1.1,0.7,1.6,1c0.3,0.2,0.7,0.4,0.9,0.7
			c0.3,0.4,0.4,0.8,0.4,1.3c0,0.4,0.1,0.7,0.3,1.1s0.4,0.6,0.6,0.9c0.3,0.4,0.5,0.8,0.8,1.2c0.1,0.2,0.3,0.3,0.3,0.5
			c0,0.2,0,0.5,0,0.7c0,0.2,0,0.3,0.1,0.4c0.1,0,0.2,0,0.3,0c0.3,0,0.6,0,1,0.2c0.3,0.1,0.6,0.2,0.9,0.3c0.3,0.1,0.8,0.2,1,0
			c0.1-0.2,0.3-0.4,0.5-0.5c0.2-0.1,0.5-0.1,0.6,0c0.2,0.1,0.2,0.3,0.4,0.4c0.1,0,0.3,0,0.4-0.1s0.2-0.2,0.4-0.3
			c0.3-0.2,0.6,0,0.9,0.1c0.5,0.2,0.9,0.4,1.3,0.7l0,0c0.1-0.2,0-0.5,0.3-0.8c0.2-0.2,0.5-0.2,0.7-0.1c0.5,0.2,0.8,1,1.4,1.1
			c1.3-0.2,2.6-0.9,4-0.8c0.8-0.1,0.1,1.1,0.9,1.1c0.4,0.1,0.9-0.1,1.2,0.1c2,0.1,1.7,2.3,3.8,0.7c2.1,1,0.8-2.2-0.2-2.5
			c-0.7-0.2-1.7-0.1-2.1-0.8c-0.2-0.3,0.2-0.5,0.5-0.5c0.3,0,0.5-0.2,0.3-0.4c-0.1-0.2-0.5-0.5-0.3-0.7c0.1-0.2,0.7,0.1,0.9,0.2
			c0.3,0.1,0.7,0.2,1,0.1c0.6-0.2,0.3-1,0.1-1.4c-0.5-1.9,1.8-0.9,2.4-1.8c0.1-2.6,1.4-0.5,2-2.2c0-0.1,0.3-0.3,0.4-0.3
			c0.2-0.1,0.3-0.1,0.5-0.2c0.4-0.1,0.8-0.1,1.1-0.1c0.5,0,1.1-0.1,1.6-0.2c0.5-0.1,1-0.3,0.9-0.9c0-0.4-0.2-0.7-0.5-0.9
			c-0.2-0.1-0.3-0.3-0.5-0.4c-0.1-0.1-0.2-0.1-0.3-0.1c-0.1,0-0.2-0.1-0.3-0.1c-0.7-0.5-0.4-1.4,0.5-1.4c0.8,0,1.5,0.8,2.3,0.6
			c0.5-0.1,1-0.8,1.5-0.7l0,0c0,0,0.2-0.1,0.2-0.1c0.4-0.2,0.9-0.5,1.4-0.5c0.3,0,0.5,0.1,0.8,0.1c0.7,0.1,1.4-0.2,1.8-0.7
			c0.1-0.1,0.2-0.3,0.3-0.4c0.4-0.3,0.9,0,1.3-0.2c0.2-0.1,0.4-0.3,0.5-0.5c0.1-0.2,0-0.5-0.1-0.7c0-0.3,0.1-0.6,0.2-0.9
			c0.1-0.1,0.2-0.3,0.2-0.4c0-0.1-0.1-0.3-0.2-0.4c-0.3-0.4-0.7-0.7-1-1c-0.3-0.3-0.7-0.7-0.8-1.1c-0.1-0.5,0-1-0.3-1.4
			c-0.4-0.6-1.4-0.7-1.8-1.3c-0.2-0.2-0.2-0.5-0.2-0.8c0-0.3,0.1-0.7,0.3-0.9c0.1-0.1,0.3-0.2,0.5-0.3c0.4-0.2,0.7-0.3,1.1-0.4
			c0.3-0.1,0.6-0.3,0.8-0.6c0.1-0.3,0.1-0.7,0-1c-0.2-0.5-0.5-0.9-1-1C61.4,10,61.2,10,61,9.9s-0.3-0.2-0.3-0.4c0-0.2,0-0.3,0-0.5
			c0-0.1-0.2-0.2-0.3-0.3S60.2,8.6,60,8.6c-0.1,0-0.3-0.1-0.4-0.2c-0.1-0.1-0.1-0.3-0.1-0.4c0.3-0.5,0.5-1,0.5-1.5
			c0-0.3-0.1-0.6-0.3-0.8c-0.1-0.1-0.3-0.3-0.3-0.4c0-0.2,0.1-0.3,0.1-0.5c0-0.2-0.1-0.3-0.3-0.4S59,4.1,58.9,4.1c-1-0.2-2-0.3-3,0
			c-0.7,0.2-1.4,0.5-2.1,0.8c-0.5,0.2-0.9,0.6-1.1,1.1c-0.1,0.2-0.1,0.5,0,0.6c0.2,0.2,0.5,0.1,0.6,0.4c0.1,0.2-0.1,0.4-0.2,0.5
			l-1.3,1.1c-0.2,0.2-0.4,0.3-0.7,0.3c-0.3,0-0.6-0.3-0.8-0.2C50,8.7,49.9,9,49.7,9c-0.1,0-0.2-0.1-0.2-0.2s-0.1-0.2-0.1-0.3
			c0-0.2,0-0.4,0-0.6c0.1-0.4,0.5-0.6,0.9-0.6c0.2,0,0.4,0,0.5-0.1C51,7.1,51,7,51.1,6.9L51.3,6c0.1-0.2,0.2-0.5,0.1-0.8
			c-0.1-0.3-0.4-0.5-0.8-0.5c-0.3,0-0.6,0.2-0.9,0.3c-0.7,0.5-1.1,1.3-1.9,1.6C47.5,6.9,47,7,46.6,6.9c-0.5-0.1-0.9-0.4-1.2-0.7
			c-0.1-0.1-0.2-0.2-0.4-0.3c-0.1,0-0.2,0-0.3,0.1s-0.2,0.2-0.3,0.3c-0.2,0.2-0.5,0.4-0.7,0.6C43.5,6.9,43.4,7,43.2,7
			c-0.2,0-0.3-0.2-0.4-0.4c-0.1-0.2-0.1-0.4-0.2-0.5c-0.1-0.2-0.3-0.3-0.5-0.4c-0.6-0.4-1.1-0.9-1.5-1.5C40.5,4.1,40.4,4,40.3,4
			c-0.1,0-0.2,0-0.3,0.1c-0.2,0-0.3-0.2-0.5-0.3c-0.3-0.2-0.7-0.2-1-0.3c-0.9-0.2-1.9-0.5-2.6,0.2c-0.3,0.3-0.4,0.7-0.5,1.1
			c-0.2,0.5-0.3,1.1-0.5,1.6c-0.2,0.4-0.3,0.8-0.4,1.3c-0.1,0.2-0.1,0.4-0.2,0.6c0,0.1,0,0.2-0.1,0.2c-0.1,0.1-0.2,0.1-0.4,0.1
			c-0.2,0-0.3-0.1-0.4-0.2c-0.2-0.2-0.4-0.5-0.5-0.8c-0.2-0.8-0.7-1.2-1.5-0.5c-0.6,0.2-1.4-0.4-2-0.1c-0.2,0.1-0.4,1.1-0.6,1.3
			c-0.5,0.3-0.7,0.5-1.2,0.5c-1.1,0.1-2.1,0.1-3.1,0.1C24.1,8.9,23.7,8.8,23.4,8.7L23.4,8.7z"/>
	</g>
</g>
</svg>
