<?xml version="1.0" encoding="utf-8"?>
<!-- Generator: Adobe Illustrator 26.4.1, SVG Export Plug-In . SVG Version: 6.00 Build 0)  -->
<svg version="1.1" id="uuid-ea4a02e1-51e3-46b7-8a33-69b51e03a2f8"
	 xmlns="http://www.w3.org/2000/svg" xmlns:xlink="http://www.w3.org/1999/xlink" x="0px" y="0px" viewBox="0 0 59.5 42.1"
	 style="enable-background:new 0 0 59.5 42.1;" xml:space="preserve">
<style type="text/css">
	.st0{fill:#97B4CE;stroke:#000000;stroke-width:0.25;stroke-miterlimit:10;}
</style>
<g id="uuid-4d62c854-4ee9-4f4a-8e4d-713652eb74b0">
	<g id="uuid-578b88c8-d12a-4e22-8a5e-c5ae370d3f0d">
		<path class="st0" d="M54.3,17.2c-2,0.3-3.2-2.9-5.1-1c-0.8,0.3-1.8-0.5-2.5,0c-0.4,0.3-0.6-0.6-0.7-0.9c-2.3-1.5-1.8,2.8-5.1-2
			c0.2-2-2.1-1.9-3.4-2.4c-2.5-1.1-2,2-6.3-1.3c-0.2,0-0.6,0.4-0.8,0.1c-0.8-0.4-1.8,0.7-2.6,0.4c-0.3-0.5-0.5-1.3-1.2-1.3
			c0.2-0.5-0.6-0.5-0.8-0.6C25.2,7.2,25,6.9,24,7.1c-1.2-0.1-2-1.5-3.2-1.5c-0.4,0-1.2,0.2-1.1-0.5c-0.8-0.7,0.8-1-0.9-1.9
			c-0.6-0.7,0.2-1.6,0.4-2.4c0-1.6-2.3-0.5-2.2,0.6c0.7,1.8-2,1.5-5.1,2C12,3.8,12.3,4,12.4,4.2c0.4,0.6-0.6,1.2,0,1.7
			c0.6,0.6-0.2,1.6-0.8,1.8c-0.3,0.1-0.6,0.1-0.7,0.4c-0.1,0.6,0.7,1.2,0.1,1.6c-0.5,0.4,0,0.8-0.1,0.9c-0.2,0.6-0.2,0.6-0.2,0.8
			c-0.6,1.5-2.1-0.2-2.8,1c-0.8,0.6-4,0-1.9,2.6c0.2,0.3,0.2,0.7-0.2,0.7c-1-0.1-1.2,0.5-1.5,1.3c-0.1,0.1-0.5,0.5-0.2,0.5
			c2,0.3,0.1,0.9-0.5,1.6c-0.8,0.9-1.3,1.4-1.7,1.5l0,0c-0.1,0.2-0.2,0.4-0.3,0.6c-1.3,2.7,2,2.4-0.9,4.7c-0.3,0.2-0.4,0.6-0.4,0.9
			c0.1,0.4,0.1,0.8-0.1,1c0.7,0.3,1.4,0.7,1.9,1c1.5,0.4,0.3,2.5,1.7,2.8c0.4,0,0.6-0.4,1-0.2c0.6,0.3,1,1.1,1.2,1.7
			c0.1,0.3,0.1,0.7,0.3,0.9c0.2,0.2,0.5,0.3,0.8,0.5c0.4,0.2,0.9,0.3,1.4,0.2c0.4-0.1,0.7-0.2,1-0.3c0.4-0.1,0.8-0.4,1.2-0.3
			c0.3,0,0.6,0.7,0.8,0.5c1.2-0.6,2.3-0.3,3.2-1c1.9-1.5,4.5,0.4,5.1,2.3c-0.1,0.8-0.4,2,0.7,2.1c1-0.2,0.8,1.2,1.9,0.3
			c0.8-0.2,1.1,1.2,1.9,0.9c0.3-0.3,0.7,0.2,1.1-0.1c0.4-2,2.3-0.6,3.5-0.8c1-0.3,0.2-1.7,0.9-2.3c0.2-0.2,0.5-0.4,0.8-0.6
			c0.2-0.2,0.5-0.5,0.7-0.8c0.2-0.3,0.5-0.5,0.7-0.8c0.1-0.1,0.2-0.2,0.3-0.3c0.2-0.1,0.2-0.2,0.4-0.1c0.6,0.4,1.1-0.2,1.5-0.5
			c0.2-0.2,0.5-0.3,0.8-0.2c0.2,0.1,0.3,0.2,0.5,0.3c0.2,0.2,0.3,0.5,0.5,0.7c0.5,0.3,1.2,0,1.7,0.1c0.9,0.1,1.9,1.1,2.8,0.4
			c0.4-0.5,1-0.5,1.5-0.1c1.2,1.2,5.5,2.2,4.7,4.2c-0.3,0.9,2,1.8,1.3,2.5c1,2,4.3,0.7,4.4-1.2c0.2-0.5,1.5-0.7,1.1-1.1
			c-2.8-3.3,1.4-5.1-0.1-7.7c-0.8-1.4,1.3-2.8,1.5-4.3c0.3-0.2,0.4-0.4,0.2-0.8c-0.4-0.8,0.5-1.5,0.8-2.2c-0.4-1.2,0.9-1.7,1.5-2.5
			C61.2,17,58.9,16.8,54.3,17.2L54.3,17.2z"/>
	</g>
</g>
</svg>
