<?xml version="1.0" encoding="utf-8"?>
<!-- Generator: Adobe Illustrator 26.4.1, SVG Export Plug-In . SVG Version: 6.00 Build 0)  -->
<svg version="1.1" id="uuid-d91a97ff-2e45-4e4c-8b15-c4c43f4a0738"
	 xmlns="http://www.w3.org/2000/svg" xmlns:xlink="http://www.w3.org/1999/xlink" x="0px" y="0px" viewBox="0 0 24.7 18.3"
	 style="enable-background:new 0 0 24.7 18.3;" xml:space="preserve">
<style type="text/css">
	.st0{fill:#00377D;stroke:#000000;stroke-width:0.25;stroke-miterlimit:10;}
</style>
<g id="uuid-175eccb2-dd4d-46c7-9b0c-d8d5b257a276">
	<g id="uuid-3a7ea30c-eafa-492f-9ef3-e875e872fa80">
		<path class="st0" d="M24.2,7.1c0.1-0.2,0.2-0.4,0.3-0.6c-0.9,0.2-1.2-1.2-2.9-2.2c-0.8-0.4,0.2-2.2-1.1-2c-3.3,0.4-6,0.7-8.7-1.2
			c-1.1-0.8-1.9,0.8-3.2-0.7C8.1-0.1,8,0.4,7.3,0.6C6.6,1,5.5,1.2,4.7,0.7C4.2,0.5,3.6,0.6,3.3,1C3.2,1.2,3.1,1.5,3,1.8
			C2,3.6-0.7,1.9,0.4,4.7c0.5,0.7,1,1.5,0.9,2.5C1.2,7.7,1.6,7.3,1.6,8.5c0,0.2-0.2,0.3-0.3,0.5c-0.4,1,1.7,2.1,1.9,3.4
			c0.5,1,2.5,1.2,2.4,2.7c0.3,1.8,2-0.6,2.7-0.2c0.8,0.5,1.1-0.1,1.8,0.1c0.8,0.5,2.1,1.4,1.8,2.3c-0.1,0.3-0.6,0.6-0.4,0.7
			c0.8,0.3,4-0.2,5.2-0.6c0.2-0.1,0.4-0.2,0.5-0.4c0.4-0.6,1.2-1,1.2-1.7c-0.7-2.2,3.1-0.9,4.3-1.6c0.3-0.2,0.2-0.7,0.2-1.1
			c0-0.4,0.1-0.7,0.4-0.9C26.1,9.4,22.8,9.8,24.2,7.1L24.2,7.1z"/>
	</g>
</g>
</svg>
