<?xml version="1.0" encoding="utf-8"?>
<!-- Generator: Adobe Illustrator 26.4.1, SVG Export Plug-In . SVG Version: 6.00 Build 0)  -->
<svg version="1.1" id="uuid-ce63fdb0-3be6-4d09-ba7e-331acf9c643c"
	 xmlns="http://www.w3.org/2000/svg" xmlns:xlink="http://www.w3.org/1999/xlink" x="0px" y="0px" viewBox="0 0 53.5 30.4"
	 style="enable-background:new 0 0 53.5 30.4;" xml:space="preserve">
<style type="text/css">
	.st0{fill:#700500;stroke:#000000;stroke-width:0.25;stroke-miterlimit:10;}
</style>
<g id="uuid-8f31462f-dd28-41ab-b779-7dc63c1a003b">
	<g id="uuid-243b96e6-8530-4fa7-819d-ae3590950468">
		<path id="uuid-c19c3a96-b58c-4ed9-ba96-5dbfa491ab89" class="st0" d="M52.5,12.5c1.1-0.4,0.3-1.4,0.3-2.3c0-0.1,0-0.2,0-0.3
			c0.1-0.3,0.2-0.5,0.3-0.7c0.2-0.3,0.2-0.6,0.1-0.9c-0.3-0.8-0.6-1.9-0.1-2.6c0.2-0.3-0.4-0.2-0.5-0.4c0-0.6,1.1-0.8,0.6-1.5
			c-0.4-1.7-2.5-2.3-3.5-3.3c-0.4-0.4-1-0.3-1.4,0C44,4.2,35.8,2.1,33,8.1c-1,1.6,3.3,1.4,3.4,1.3c2.3-0.6,2.2-0.3,0.1,0.3
			c-2.8,0.6-3.4,1.2-5.2,2.1c-1.1,0.5-2.4,0.5-3.5,0c-1.8-0.9-4.1-0.1-6.1-0.7c-1-0.3-2.3-0.9-3,0c-0.2,0.3-0.5,0.4-0.8,0.2
			c-0.3-0.3,0-0.7-0.1-1c-0.5-1-1.9-1.4-0.7-2.7c1.5-2.3-2.9-0.9-4.1-0.8c-1.3,0.1-2.6-1.4-3.9-0.9C8.4,6.1,9.5,6.6,9.8,6.8
			c1.1,0.6-0.5,1.3-0.3,2c0.3,0.8,0.5,1.4,0.7,2.1c0.2,0.6,1.4,0.6,1.4,1.3c0.1,0.8,2.8,1.4,1.7,1.2c-1.4-0.2-0.9,0.8-0.6,1.3
			c0.2,0.5,0,1.2,0.3,1.5c0.1,0.1,0.1,0.3,0,0.4c-0.4,1-0.4,2.5-0.4,3.6c0,0.2,0.6,0.9,1.1,1.3c0.4,0.4,1.2,0.3,0.9,0.6
			c-0.7,0.2-2.6-0.3-2.4,0.6c1.4,4.8,3.2-0.7,5.5,1.4c0.5,0.5,1.3,0.1,2,0.2c0.5,0.1,1,0.5,1.5,0.8c0.4,0.2,0.8,0.2,1.2-0.1
			c0.2-0.2,0.4-0.2,0.7,0.1c0.5,0.6,1.2-0.4,1.9-0.7c0.2-0.1,0.4-0.1,0.6,0c0.8,0.2,1.8,0.1,2.3-0.6c0.1-0.1,0.2-0.2,0.3-0.1
			c0.7,0.6,1.1,1.5,1.6,2.3c0.3,0.4,0.8,0.5,1.2,0.3c1.6-0.7,3.2-2.3,3.9-0.3c0.3,0.8,0.3,2.1,1.2,2.2c0.4,0.1,0.6,0.2,0.8,0.6
			c0.3,0.4,1,0.3,1.6,0.4c0.7,0.1,1.2,1.3,1.8,1c0.8-0.4-1.1-1.9-0.2-2.4c0.7-0.5,1.7-0.5,2-1.4c0.8-1.8-2.8-2.9-0.6-4.3
			c0.6-0.5,1.6-0.4,2.3-0.8c0.4-0.2,0.8-0.3,1.3-0.2c0.7,0.2,1.5,0.2,1.9-0.2c0.8-1.1,2.2-2.1,1.6-3.7c-0.7-1.5,2.4-0.7,2.8-2.1
			c0.2-0.9,0.8-1.2,0.8-1.8C52,12.8,52.1,12.5,52.5,12.5L52.5,12.5z"/>
		<path class="st0" d="M5.5,14c-0.1,0-0.3-0.1-0.4-0.2c0-0.1,0-0.2,0-0.2C5,13.4,5,13.3,5,13.2c0-0.1,0-0.3,0.2-0.3s0.2,0.1,0.4,0.1
			C5.8,13,6,12.9,6.3,12.8c0.4-0.1,0.8,0,1,0.3c0.2,0.2,0.4,0.6,0.4,0.9c0,0.3-0.2,0.2-0.4,0.1C7,14,6.7,13.9,6.4,13.8
			C6.1,13.7,5.9,14.1,5.5,14L5.5,14z"/>
		<path class="st0" d="M0.3,10.1c-0.1,0-0.2,0-0.2-0.1c0-0.1,0.1-0.1,0.1-0.2L1,9.3C1.2,9.2,1.4,9,1.6,8.9c0.1-0.1,0.2-0.1,0.3-0.1
			C2,8.8,2.1,8.9,2.1,9S2,9.3,2,9.4C1.9,9.6,1.8,10,1.5,10.1C1.1,10.1,0.7,10.1,0.3,10.1z"/>
		<path class="st0" d="M3.5,10.1c0-0.1,0.1-0.2,0.2-0.3c0.1,0,0.1,0,0.2,0C4,9.9,4,9.9,4.1,10c0,0.1,0,0.2,0,0.2
			c0,0.1-0.1,0.1-0.2,0.2c-0.1,0-0.2,0.1-0.3,0C3.6,10.3,3.5,10.2,3.5,10.1L3.5,10.1z"/>
		<path class="st0" d="M6,5.5c0.1,0,0.2-0.1,0.2,0c0.1,0,0.1,0.2,0.1,0.3S6.2,5.9,6.1,6C6,6,5.6,6.2,5.5,6S5.8,5.6,6,5.5L6,5.5z"/>
	</g>
</g>
</svg>
