<?xml version="1.0" encoding="utf-8"?>
<!-- Generator: Adobe Illustrator 26.4.1, SVG Export Plug-In . SVG Version: 6.00 Build 0)  -->
<svg version="1.1" id="uuid-889bb5bc-67db-436d-bf24-039d38d42c4b"
	 xmlns="http://www.w3.org/2000/svg" xmlns:xlink="http://www.w3.org/1999/xlink" x="0px" y="0px" viewBox="0 0 65 40.6"
	 style="enable-background:new 0 0 65 40.6;" xml:space="preserve">
<style type="text/css">
	.st0{fill:#346250;stroke:#000000;stroke-width:0.25;stroke-miterlimit:10;}
</style>
<g id="uuid-43e0b094-f2fc-40ac-8f16-ee3f1a87c29a">
	<path id="uuid-e26551d6-9fd0-4837-acf4-38752ab905d7" class="st0" d="M64.8,14.6c-0.1-0.1-0.1-0.1-0.2-0.2
		c-0.1-0.1-0.2-0.1-0.3-0.2c-0.1,0-0.2-0.1-0.2-0.1c0-0.1,0-0.2-0.1-0.3c-0.1-0.1-0.2-0.1-0.3-0.1c-0.1,0-0.2-0.1-0.3-0.1
		C63.1,13.4,63,13.2,63,13c0-0.6-0.2-1.3-0.7-1.7s-1.1-0.7-1.7-1c-0.3-0.1-0.6-0.2-0.9-0.1c-0.1,0.1-0.2,0.2-0.3,0.3
		s-0.3,0.2-0.4,0.1c-0.2-0.1-0.3-0.3-0.4-0.4c-0.2-0.1-0.4-0.1-0.6,0s-0.3,0.3-0.5,0.5c-0.2,0.3-0.6,0.1-1,0
		c-0.3-0.1-0.6-0.2-0.9-0.3c-0.3-0.1-0.6-0.2-1-0.2c-0.1,0-0.2,0-0.3,0c-0.1-0.1-0.2-0.2-0.2-0.4c0-0.2,0-0.4,0-0.7
		c0-0.2-0.2-0.4-0.3-0.5c-0.3-0.4-0.5-0.8-0.8-1.2c-0.2-0.3-0.4-0.6-0.6-0.9s-0.3-0.7-0.3-1.1c0-0.5-0.1-0.9-0.4-1.3
		c-0.2-0.3-0.6-0.5-0.9-0.7c-0.5-0.3-1.1-0.7-1.6-1c-0.3-0.2-0.6-0.3-0.8-0.2c-0.4,0.1-0.6,0.5-1,0.7c-0.3,0.1-0.7-0.1-0.9-0.3
		c-0.2-0.2-0.3-0.5-0.5-0.8s-0.4-0.5-0.7-0.6c-0.5-0.1-1,0.2-1.4,0.5c-0.4,0.2-0.8,0.4-1.2,0.5c-0.2,0-0.4,0-0.6,0.2
		c-0.3,0.2-0.8,0.9-0.9,1.2C41.1,4.1,41.1,4,41,4.8c-0.1,0.3-0.1,0.4-0.2,0.7c-0.1,0.2-0.3,0.2-0.5,0.2c-0.2-0.1-0.3-0.2-0.4-0.3
		c-0.4-0.5-0.3-1.2-0.6-1.8c-0.1-0.2-0.3-0.4-0.5-0.6c-0.2-0.2-0.3-0.4-0.6-0.5c-0.1,0-0.3-0.1-0.4-0.2c-0.1-0.1-0.2-0.3-0.3-0.4
		c-0.1-0.2-0.3-0.3-0.5-0.3c-0.2,0-0.3,0.2-0.4,0.4c-0.2,0.2-0.4,0.4-0.7,0.6c-0.6,0.5-1,1.3-1.3,2c-0.1,0.3-0.4,0.5-0.7,0.7
		c-0.3,0.2-0.6,0.2-0.9,0.2c-0.5,0-1-0.1-1.4,0c-0.4,0.1-0.7,0.2-1,0.3c-0.9,0.3-0.8-1.9-1-2.3c-0.1-0.2-0.2-0.4-0.3-0.6
		c-0.1-0.2-0.3-0.4-0.3-0.6C29,2,29,1.7,28.9,1.4c0-0.2-0.1-0.4-0.2-0.6C28.2,1,27.7,1,27.3,1c-1.8,0.2-1.7,1.3-3.4-0.4
		C23-0.3,20,0,21.2,1.7C21.4,2.8,19.7,3,19.7,4c0.2,0.9-0.8,1.1-1.4,1.3c-0.8,0.6-2.1,1.4-2.2,2.5c0,0.7,0.9,1.2,0.8,1.9
		c-0.5,0.4-1.3,0.4-1.9,0.2c-0.6,0.7,0.8,1.7,0.2,2.3c-0.2,0.1-0.4,0.2-0.5,0.4c0,0.3,0.3,0.6-0.2,0.7c-0.9-0.2-1.3,1.6-2.3,1.4
		c-1.7-1.2-3.1,0.5-4.7,0.2c-0.7-0.2-1.1,0.9-1.8,0.4c-0.2,0-0.3,0.3-0.4,0.5c-0.7,1.5-0.8-1.4-1.5-0.5c-0.2,0.2-0.4,0.6-0.6,0.7
		c-0.4,0.2-1.2-0.1-1.3,0.5c0,0.4,0.5,0.7,0.3,1.1C2,17.7,1.9,18,2,18.2c0.4,0.8-0.5,1.3-0.6,2C2,21.2,5,21.6,4,23
		c0.4,0.4,1,0.9,0.8,1.6c-1.3,0.7-0.3,1-0.8,2C3.4,27.5,2.2,28,2,29.1c0,0.5-0.9,0.5-1.2,0.8c-0.2,0.2-0.1,0.4,0,0.6
		c0.1,0.3-0.2,0.5-0.3,0.8c0,0.4-0.2,0.8-0.4,1.1c0,0,0,0,0,0c0.2,0.3,0.6,0.6,1,0.7c0.2,0.1,0.4,0.1,0.6,0.1s0.4,0,0.5,0.2
		c0.1,0.2,0.2,0.5,0.3,0.7c0.3,0.4,0.9,0.7,1.4,0.7c0.5,0,1-0.3,1.5-0.4s1.1-0.2,1.5,0.2c0.1,0.1,0.2,0.3,0.3,0.4s0.3,0.2,0.5,0.1
		c0.2-0.1,0.2-0.3,0.4-0.4c0.2-0.1,0.4,0,0.6,0.1c0.9,0.4,1.9,0.3,2.8,0.2c0.2,0,0.5-0.1,0.6-0.3c0.1-0.2,0-0.3-0.1-0.5
		c-0.1-0.3-0.2-0.5-0.1-0.8s0.2-0.5,0.4-0.7c0.4-0.2,0.8,0,1.2,0.2c0.4,0.2,0.9,0.2,1.4,0.3c0.3,0.1,0.6,0.1,0.9,0.2
		c0.3,0.1,0.6,0.1,0.9,0.2c0.4,0.1,0.7,0.3,1,0.6c0.2,0.2,0.4,0.4,0.6,0.5c0.4,0.2,0.6,0,0.9-0.1c0.2,0,0.5,0,0.7,0
		c0.4,0.1,0.8,0.3,1,0.7c0.2,0.3,0.3,0.6,0.5,0.8c0.3,0.4,0.8,0.6,1.3,0.8c0.9,0.4,1.8,0.7,2.7,1.1c0.6,0.2,1.2,0.2,1.8,0.4
		c0.3,0.1,0.6,0.2,0.8,0.4c0.2,0.2,0.2,0.5,0.4,0.7c0.2,0.3,0.5,0.5,0.8,0.5s0.7,0,0.9-0.2c0.2-0.2,0.4-0.5,0.7-0.6
		c0.2-0.1,0.4,0,0.5,0c0.2,0,0.3,0,0.5-0.1c0.4-0.1,0.9-0.1,1.3,0c0.5,0.2,1,0.5,1.5,0.8c0.2,0.1,0.4,0.3,0.6,0.4s0.5,0.1,0.7,0
		c0.2-0.1,0.4-0.3,0.7-0.3c0.3,0,0.6,0.3,0.9,0.2c0.2-0.1,0.2-0.3,0.3-0.5c0.2-0.4,0.7-0.7,1.1-0.6c0.4,0,0.8,0,1.1-0.2
		c0.3-0.2,0.7-0.4,1.1-0.5c0.4-0.1,0.8,0,1.2,0.1c0.4,0.1,0.7,0.3,1.1,0.4c0.2,0,0.5,0.1,0.7,0.1c0.2,0,0.5,0,0.6-0.2
		c0.1-0.2-0.2-0.6-0.4-0.8c-0.2-0.3-0.6-0.5-0.9-0.7c-0.3-0.2-0.6-0.5-0.7-0.8c-0.1-0.5,0-1,0-1.5c0-0.8,0-1.5,0-2.3
		c0-0.6,0-1.2-0.2-1.8c-0.3-1,0.6-2,1.3-2.8c0.6-0.6,1-1.4,1.8-1.8c0.4-0.2,0.8-0.3,1.3-0.4c0.2,0,0.5,0,0.7,0c0.2,0,0.5,0,0.7,0
		c0.2-0.1,0.4-0.4,0.6-0.6c0.4-0.4,0.9-0.7,1.5-1c0.5-0.2,0.9-0.4,1.3-0.6c0.4-0.2,0.7-0.5,1-0.8c0.6-0.5,1.2-0.9,2-1.1
		c0.2-0.1,0.5-0.1,0.8-0.1c0.2,0,0.5,0.1,0.7,0.3c0.3,0.3,0.3,0.9,0.6,1.1c0.2,0.2,0.5,0.1,0.8,0c0.2-0.1,0.4-0.3,0.6-0.5
		c0.2-0.2,0.4-0.4,0.7-0.5c0.4-0.2,0.8-0.4,1.2-0.5c0.2-0.1,0.5-0.2,0.5-0.5c0-0.2-0.2-0.4-0.3-0.6c-0.1-0.2,0-0.5,0.2-0.7
		s0.5-0.2,0.7-0.2c0.4,0,0.8,0,1.1-0.2c0.2-0.1,0.3-0.4,0.3-0.7s0-0.5-0.1-0.8c-0.1-0.3-0.1-0.7,0-1c0.2-0.4,0.5-0.5,0.9-0.7
		c0.3-0.1,0.6-0.4,0.8-0.6c0.2-0.2,0.4-0.5,0.5-0.7C64.8,14.6,64.8,14.7,64.8,14.6L64.8,14.6z"/>
</g>
</svg>
