<?xml version="1.0" encoding="utf-8"?>
<!-- Generator: Adobe Illustrator 26.4.1, SVG Export Plug-In . SVG Version: 6.00 Build 0)  -->
<svg version="1.1" id="uuid-0229a511-e3e3-4e9a-ac47-653c631576f8"
	 xmlns="http://www.w3.org/2000/svg" xmlns:xlink="http://www.w3.org/1999/xlink" x="0px" y="0px" viewBox="0 0 37.3 42.3"
	 style="enable-background:new 0 0 37.3 42.3;" xml:space="preserve">
<style type="text/css">
	.st0{fill:#E8B59B;stroke:#000000;stroke-width:0.25;stroke-miterlimit:10;}
</style>
<g id="uuid-8ec2c76f-eff5-4a75-bfc7-934f1c6c014b">
	<path class="st0" d="M14.2,5.2c-0.5-0.1-0.9,0-1.3,0.2c-0.7,0.4-1.7,0.3-2.3,0.8c-2.2,1.4,1.4,2.5,0.6,4.3c-0.3,0.9-1.3,0.9-2,1.4
		c-0.9,0.5,0.9,1.9,0.2,2.4c0.2,0.2,0.5,0.3,1-0.2c0.6,0.6-0.2,0.4-0.5,0.7c-0.1,0.1-0.1,0.2-0.1,0.3c-0.2,0.2-0.8,0.3-0.5,0.8
		c0.8,0.8-0.1,1.8-0.3,2.7C8.9,19.1,8.6,20,8,20c-0.9-0.1-0.8,0.9-1.3,1.3c-0.2,0.2-0.5,0.2-0.8,0.3c-0.5,0.1-0.6,0.8-1,0.1
		c-0.4-0.2-0.5,0.2-0.4,0.5c-0.1,0.3-0.4,0.4-0.6,0.4c-2.2-1-1.3,0.8-1.9,2.1c0.4,1.2-1.1,2.1-0.9,3.3c0.1,0.5-0.1,1-0.7,0.9
		c-0.1,0-0.2,0.1-0.3,0.1c0.1,0,0.1-0.1,0.2-0.1c0.7,0,1.4,0.7,2,1.3c0.3,0.8,1.6,0.2,1.7,1.2c-0.3,1.8,2.3,1.2,3.3,1
		c0.3-0.2-0.3-0.8,0.3-0.6c2.1,1.7,3,4.5,4.4,6.6c0.4,0.7,1.1,0.8,1.8,1.1c0.5,0.7,0.3,1.7,0.9,2.3c0.6,0.3,1.6-0.7,2,0.1
		c0.7,0.7,1.4-0.8,2.2-0.5c0.9,0.4,2.1,0.3,2.7-0.6c1.7,0.4,3.7,0,5.5,0.3c-0.1-0.3,0.1-0.7,0.4-0.9c0.3-0.2,0.7-0.3,1-0.4
		c0.5-0.2,1-0.3,1.5-0.5c0.2-0.1,1.6-0.3,1.4-0.6c-0.1-0.2-0.3-0.5-0.3-0.8c-0.1-0.4,0.1-0.8,0.4-1c0.3-0.3,0.8-0.6,1.2-0.6
		s0.7,0.2,1,0.1c0.6-0.2,1.1-0.8,1.7-1c0.3-0.1,0.5-0.1,0.8,0c0-0.2,0.1-0.5,0.2-0.7c0.1-0.3,0.2-0.6,0.4-0.9S37,33.4,37,33v-0.8
		c0.1-0.2,0.1-0.5,0-0.7c0-0.1,0-0.2-0.1-0.3c-0.1-0.2-0.2-0.3-0.3-0.5s-0.1-0.4-0.2-0.6c-0.1-0.3-0.2-0.6-0.3-0.9
		c-0.3-0.6-0.7-1.2-1.3-1.5c-0.3-0.1-0.4-0.4-0.3-0.7c0-0.8,0.8-1.8,0.1-2.4c-1.1-0.8-0.1-0.8,0.6-0.8c0.6-0.4-0.5-1.8-0.9-2.2
		c-1.3-0.5,0.1-1.1,0.8-0.9c1.2-0.2,0.3-2,1-2.7c1.9-1.3,0.2-2.7-1.2-3.5c0-0.1-0.1-0.1-0.1-0.2c-0.1,0.2-0.3,0.3-0.5,0.4
		c-1.2,0.4-4.4,0.9-5.2,0.6c-0.2-0.1,0.3-0.4,0.4-0.7c0.3-0.9-1-1.8-1.8-2.3c-0.7-0.2-1,0.4-1.8-0.1c-0.7-0.4-2.4,2-2.7,0.2
		c0.1-1.5-1.9-1.7-2.4-2.7c-0.2-1.3-2.3-2.4-1.9-3.4C19,6.1,19.2,6,19.2,5.8c0-1.2-0.4-0.8-0.3-1.3C19,3.5,18.5,2.7,18,2
		c-0.3-0.9-0.3-1.3-0.1-1.5c-0.3,0.2-0.4,0.4-0.2,0.8c0.6,1.6-0.8,2.6-1.6,3.7C15.7,5.4,14.8,5.4,14.2,5.2L14.2,5.2z"/>
</g>
</svg>
