<?xml version="1.0" encoding="utf-8"?>
<!-- Generator: Adobe Illustrator 26.4.1, SVG Export Plug-In . SVG Version: 6.00 Build 0)  -->
<svg version="1.1" id="uuid-d058f131-bce8-463a-864c-bfa3edfbfa56"
	 xmlns="http://www.w3.org/2000/svg" xmlns:xlink="http://www.w3.org/1999/xlink" x="0px" y="0px" viewBox="0 0 34.7 34.8"
	 style="enable-background:new 0 0 34.7 34.8;" xml:space="preserve">
<style type="text/css">
	.st0{fill:#00ADCA;stroke:#000000;stroke-width:0.25;stroke-miterlimit:10;}
</style>
<g id="uuid-70a4d3bf-8bd6-453c-870e-166a5073a35d">
	<path id="uuid-ff9d5926-515d-4cf2-b71a-79f08e406fd2" class="st0" d="M12.6,0.6c-0.2-0.3-0.5-0.4-0.8-0.5C9.4,0,0.9,2,1.9,3.8
		c0.3,0.7-0.5,1-0.4,1.6c0.9,1.4,0.3,3,0.6,4.5C2,10,2.1,10,2.4,10.1c0.4,0.2,0.3,0.3-0.2,0.2c-0.5,0.1-0.7,0.8-0.5,1.2
		c0.3,0.6,1.3,0.7,1.4,1.4c0,0.2-0.3,0-0.7-0.1c-0.4-0.2-0.8-0.1-1.1,0.1c-2.3,1.8-1.2,2.1,1.4,3.8c0.6,0.6,2,1.9,1.3,2.8
		c-0.2,0.2-0.5,0.4-0.4,0.6c0.1,0.2,0.7,0,0.5,0.4c-0.5,0.7-0.2,1.9,0.1,2.6c0.1,0.3,0.1,0.6-0.1,0.9c-0.1,0.2-0.3,0.5-0.3,0.7
		c0,0.1,0,0.2,0,0.3c0,1,0.8,2-0.3,2.4c-0.4,0.1-0.5,0.4-0.1,0.9c1.1,1.1,2.3,0.8,3.3,0.5c0.7-0.2,0.8-0.8,1.3-0.4
		c0.6,0.6,1.3,0.9,2,0.6c0.2-0.1,0.5,0,0.8,0.1c3,1.5,5.6,1.9,9.1,1.3c1.3-0.1,0.3,1.6,1.1,2c2.5,1.4,2,3.7,4.6,0.7
		c0.6-0.7,2.5-1.3,0.5-1.6c-0.2,0,0.1-0.4,0.2-0.5c0.3-0.8,0.6-1.5,1.5-1.3c0.4,0,0.4-0.4,0.2-0.7c-2-2.6,1.1-1.9,1.9-2.5
		c0.6-1.1,2.2,0.5,2.8-1c0.1-0.2,0-0.3,0.2-0.8c0-0.1-0.4-0.5,0.1-0.9c0.5-0.5-0.2-1.1-0.1-1.6c0.1-0.3,0.4-0.3,0.7-0.4
		c0.6-0.2,1.4-1.3,0.8-1.8c-0.6-0.5,0.4-1.2,0-1.7c-0.4-0.6-1.8-1.3-1.2-2.1c0.2-0.3,0.4-0.7,0.1-0.9c-1.9-1.2,0.9-2.8-0.8-2.5
		c-0.5,0.2-1-0.4-1.5-0.9c-0.2-0.2-0.5-0.2-0.7-0.2c-1.2,0-2.1-0.4-3.5,0.1c-0.4,0.2-0.5-0.8-0.5-1.1c-0.1-0.8-0.8-1.5-1.6-1.7
		c-0.5-0.1-0.8-0.4-1.4-0.2c-2.1,0.9-1.8-3.7-4.1-4.3c-1.6-0.4-2.1,2-3.6,0.3c-0.7-0.8-1.6-0.8-1.9-1.1c-0.8-0.8-0.2-0.9-0.3-1.7
		C13.4,1.5,13,1.1,12.6,0.6L12.6,0.6z"/>
</g>
</svg>
