<?xml version="1.0" encoding="utf-8"?>
<!-- Generator: Adobe Illustrator 26.4.1, SVG Export Plug-In . SVG Version: 6.00 Build 0)  -->
<svg version="1.1" id="uuid-d2f6bd40-adc0-4cf7-861c-c652e70ecee7"
	 xmlns="http://www.w3.org/2000/svg" xmlns:xlink="http://www.w3.org/1999/xlink" x="0px" y="0px" viewBox="0 0 43.3 32.7"
	 style="enable-background:new 0 0 43.3 32.7;" xml:space="preserve">
<style type="text/css">
	.st0{fill:#51A496;stroke:#000000;stroke-width:0.25;stroke-miterlimit:10;}
</style>
<g id="uuid-91224228-c10d-4e03-b73b-e6d53a2d6551">
	<g id="uuid-cdd4a8dd-a921-4e66-9043-51a1fbc66cf5">
		<path id="uuid-f48d3e96-a8d4-43d6-a5e7-7d82381d41df" class="st0" d="M42.9,14.8c-0.1-0.1-0.2-0.2-0.3-0.3
			c-0.1-0.1-0.3-0.3-0.5-0.3c-0.4-0.1-0.7,0.1-1.1,0.2c-0.5,0.2-0.9,0.4-1.5,0.6c-0.7,0.2-1.5,0.1-2.2-0.1c-0.4-0.1-0.7-0.2-1-0.4
			c-0.2-0.1-0.4-0.2-0.6-0.3c-0.2-0.1-0.5-0.2-0.6-0.4c-0.4-0.4-0.8,0.3-1.1-0.2c-0.3-1-1.6-1.7-1-2.6c0-0.1,0-0.3,0-0.3
			c0-0.1-0.1-0.2-0.1-0.3c-0.1-0.1-0.2-0.3-0.3-0.4c-0.1-0.2-0.3-0.4-0.3-0.6c0-0.2,0.2-0.3,0.3-0.5c0.1-0.1,0.2-0.2,0.4-0.3
			c0.1-0.1,0.2-0.1,0.2-0.2c0.1-0.1,0-0.3,0-0.4s0-0.2,0-0.3c0-0.2,0.1-0.3,0.2-0.5C33.6,7,33.8,6.9,34,6.9c0.3,0,0.8,0.1,0.7-0.4
			c-0.1-0.4-0.3-0.8-0.5-1.1c-0.6-1.7-2.6-0.7-3.5-1.8c-0.3-0.6,0-1.4-0.5-1.9c-0.2-0.2-0.5-0.2-0.7-0.4c-0.3-0.3-0.2-0.8-0.6-1
			c-0.6-0.4-1.2,0.4-1.8,0.6c-0.8,0.2-1.5-0.6-2.3-0.6c-0.8,0-1.2,0.9-0.5,1.4c0.1,0,0.2,0.1,0.3,0.1c0.1,0,0.2,0.1,0.3,0.1
			c0.2,0.1,0.3,0.2,0.5,0.4C25.8,2.5,26,2.9,26,3.2c0,0.5-0.5,0.8-0.9,0.9c-0.5,0.1-1.1,0.2-1.6,0.2c-0.4,0-0.8,0-1.1,0.1
			c-0.2,0-0.4,0.1-0.5,0.2c-0.1,0.1-0.4,0.2-0.4,0.3c-0.6,1.7-1.9-0.4-2,2.2c-0.7,0.9-2.9-0.1-2.4,1.8c0.2,0.4,0.5,1.2-0.1,1.4
			c-0.4,0.1-0.7,0-1.1-0.1c-0.2-0.1-0.7-0.3-0.9-0.2c-0.2,0.2,0.2,0.5,0.3,0.7c0.2,0.3-0.1,0.4-0.3,0.4s-0.6,0.2-0.5,0.5
			c0.4,0.7,1.4,0.6,2.1,0.8c1.1,0.3,2.4,3.4,0.2,2.5c-2.1,1.6-1.8-0.6-3.8-0.7c-0.3-0.3-0.8-0.1-1.2-0.1c-0.8,0-0.1-1.2-0.9-1.1
			c-1.4-0.1-2.7,0.6-4,0.8c-0.6-0.1-0.8-0.9-1.4-1.1c-0.2-0.1-0.5-0.1-0.7,0.1c-0.3,0.2-0.2,0.5-0.3,0.8c0.1,0.1,0.3,0.2,0.4,0.3
			c0.5,0.4,0.7,1.1,0.7,1.7c0,0.2,0.1,0.4,0.3,0.5C6.1,15.9,6.2,16,6.3,16c0.1,0,0.2,0.1,0.3,0.1c0.1,0.1,0.1,0.2,0.1,0.3
			c0.1,0.1,0.2,0.1,0.2,0.1c0.1,0.1,0.2,0.1,0.3,0.2c0.1,0,0.1,0.1,0.2,0.2c0.1,0.1,0.1,0.1,0,0.2c-0.1,0.2-0.3,0.5-0.5,0.7
			c-0.2,0.3-0.5,0.5-0.8,0.6c-0.4,0.1-0.7,0.3-0.9,0.7c-0.2,0.3-0.1,0.7,0,1c0.1,0.2,0.1,0.5,0.1,0.8c0,0.3-0.1,0.5-0.3,0.7
			c-0.3,0.2-0.8,0.2-1.1,0.2c-0.3,0-0.5,0.1-0.7,0.2s-0.3,0.5-0.2,0.7C3,23,3.2,23.1,3.2,23.4c0,0.2-0.3,0.4-0.5,0.5
			c-0.4,0.2-0.8,0.4-1.2,0.5c-0.3,0.1-0.5,0.3-0.7,0.5s-0.4,0.4-0.6,0.5C1.3,26.2,4.1,24.7,5,26c0,0.6,0.2,1,0.9,1
			C6.3,26.9,6.7,27,7,27c0.2,0,0.4,0,0.6,0c0.1,0,0.2-0.1,0.3-0.2c0.1-0.1-0.1-0.3-0.1-0.4c-0.1-0.1-0.1-0.2-0.2-0.3
			c-0.2-0.2-0.3-0.4-0.5-0.7c-0.3-0.5-0.6-1-0.5-1.6c0,0,0-0.1,0.1-0.1c0,0,0.1,0,0.2,0C7,23.8,7,24.1,7,24.3
			c0.1,0.2,0.2,0.5,0.2,0.7c0.2,0.5,0.4,1,0.8,1.4C8.3,26.7,8.5,27,8.8,27c0.4,0,0.1-0.5,0-0.7c-0.1-0.2,0.1-0.5,0.3-0.5
			c0.4-0.2,0.9,0.1,1.3,0.2c1.7,0.1-0.8-1.8,0.4-2c0.8,0,1,1.2,1.8,1c0.2-0.1,0.4-0.2,0.6-0.1c0.6,1.5-2.7,0.6-2.3,2
			c0.6,0.8,1.9,0.6,2.7,0.7c0.5-0.2,1.1-0.3,1.4,0.2c0.1,0.2,0.2,0.4,0.2,0.6c0,0.2,0,0.5,0.2,0.6c0.2,0.1,0.5,0.1,0.7,0.1
			c0.5,0,1,0,1.5,0.2c0.1,0,0.2,0.1,0.4,0.2c0.1,0.1,0.2,0.2,0.3,0.3c0.5,0.4,1.1-0.5,1.5,0.2c0.5,0.4,1.1,0.8,1.3,1.5
			c0.4,0.6,0.9,0.1,1.4-0.1c0.1,0,0.1-0.1,0.1-0.2c-0.6-1.1,0.7-0.5,1.1-0.2c0.4,0.5,1.8,0,1.2,0.8c0,0.1,0.1,0.1,0.2,0.1
			c1.9-0.1,0-0.8,1.3-1.3c0.4-0.2,1-0.3,1.3,0.1c0.3,0.1,0.4-0.5,0.6-0.7c0.2-0.3,0.6-0.2,0.9-0.3c0.8-0.4,1.6-0.5,2.4-0.9
			c0.4-0.2-0.2-0.4,0.1-0.6c0.6-0.9-1.2,0.2-1-0.5c0.2-0.4,0.5-0.7,0.8-1c0.1-0.2,0.3-0.3,0.5-0.5c0.1-0.1,0.3-0.4,0.4-0.5
			c0.1,0,0.4,0,0.5,0c0.2,0,0.4-0.1,0.5-0.1c0.4-0.2,0.7-0.4,0.9-0.8c0-0.1,0-0.3,0-0.4c0-0.1,0-0.2,0.1-0.3
			c0.1-0.2,0.2-0.3,0.4-0.4c0.3-0.2,0.8-0.2,1.1-0.3c0.2,0,0.5-0.1,0.7-0.2c0.1-0.1,0.1-0.3,0.1-0.5c0-0.3-0.1-0.7,0.2-0.9
			c0.2-0.1,0.5,0,0.7-0.2c0.2-0.8,0.7-0.5,1.3-0.6c0.4-0.2,1.2-1,1.5-1.1c0.2,0,0.4-0.4,0.4-0.5c0.1-0.3,0-0.5-0.2-0.7
			c0,0,0,0,0-0.1c-0.1-0.2,0.1-0.5,0.2-0.7c0.1-0.2,0.3-0.4,0.4-0.6c0.3-0.4,0.8-0.8,1.1-1.2c0.1-0.1,0.2-0.3,0.3-0.5
			c0.1-0.1,0.2-0.3,0.2-0.5S43,14.9,42.9,14.8L42.9,14.8z"/>
		<path class="st0" d="M26.8,32.1c0,0.1-0.1,0.2-0.2,0.3c-0.2,0.1-0.5,0.2-0.7,0.2c-0.2,0-0.3-0.2-0.2-0.4c0.1-0.1,0.4-0.2,0.5-0.2
			C26.4,31.9,26.8,31.7,26.8,32.1L26.8,32.1z"/>
	</g>
</g>
</svg>
